<svg xmlns="http://www.w3.org/2000/svg" xmlns:xlink="http://www.w3.org/1999/xlink" x="0px"
	 y="0px" viewBox="0 0 220.9 317.6">
<style type="text/css">
	.header-st0{fill:#403416;}
	.header-st1{fill:url(#header_SVGID_1_);}
	.header-st2{fill:url(#header-SVGID_2_);}
</style>
<g>
	<path class="header-st0" d="M0.3,271.9V249h2.4v20.8h10.7v2.1H0.3z"/>
	<path class="header-st0" d="M39.5,271.9l-2.6-6.4h-9.7l-2.6,6.4h-2.4l9.4-23.2h0.9l9.4,23.2H39.5z M33.3,256.4c-0.4-1-0.9-2.3-1.2-3.5H32
		c-0.4,1.2-0.8,2.5-1.2,3.5l-2.8,7h8L33.3,256.4z"/>
	<path class="header-st0" d="M71.7,272.2l-11.2-12.8c-1.9-2.1-4-4.7-5.6-6.6l-0.1,0c0.1,2.1,0.1,4.2,0.1,6.3v12.6h-2.4V249h1.7l10.6,12.1
		c1.5,1.8,3.7,4.2,5.2,6.1l0.1,0c-0.1-2-0.1-4.1-0.1-6V249h2.4v23.3H71.7z"/>
	<path class="header-st0" d="M90.6,271.9h-6V249h6c6.9,0,12.7,4.2,12.7,11.5S97.5,271.9,90.6,271.9z M90.2,251H87v18.8h3.2
		c6.1,0,10.6-3.3,10.6-9.4C100.8,254.3,96.3,251,90.2,251z"/>
	<path class="header-st0" d="M136.5,271.9l-0.9-11.9c-0.1-1.9-0.3-4-0.4-6h-0.1c-0.8,1.9-1.9,4.2-2.8,6.1l-5.8,11.9h-0.9l-5.8-11.9
		c-0.9-1.8-1.9-4.1-2.8-6.1h-0.1c-0.1,1.9-0.2,4.2-0.4,5.9l-0.9,11.9h-2.2l1.8-22.9h1.6l6.3,12.8c1,2,2.1,4.3,3,6.4h0.1
		c0.9-2.1,1.9-4.3,2.9-6.4l6.3-12.8h1.5l1.9,22.9H136.5z"/>
	<path class="header-st0" d="M166,271.9l-2.6-6.4h-9.7l-2.6,6.4h-2.4l9.4-23.2h0.9l9.4,23.2H166z M159.8,256.4c-0.4-1-0.9-2.3-1.2-3.5h-0.1
		c-0.4,1.2-0.8,2.5-1.2,3.5l-2.8,7h8L159.8,256.4z"/>
	<path class="header-st0" d="M192.7,271.9l-7.6-10.5h-3.6v10.5H179V249h6.3c3.5,0,6.7,2.3,6.7,6.2c0,3-1.9,5.1-4.5,5.9l8,10.9H192.7z
		 M185,251.1h-3.5v8.3h3.6c2.5,0,4.6-1.5,4.6-4.1C189.6,252.6,187.5,251.1,185,251.1z"/>
	<path class="header-st0" d="M217.8,271.9l-10.1-11h0v11h-2.4V249h2.4v11h0l10-11h2.8l-10.2,11.2l10.7,11.7H217.8z"/>
	<path class="header-st0" d="M9.9,279.8v21.9H8.7v-21.9H0.2v-1h18.1v1H9.9z"/>
	<path class="header-st0" d="M52.7,301.7v-11H38v11h-1.1v-22.9H38v10.9h14.7v-10.9h1.2v22.9H52.7z"/>
	<path class="header-st0" d="M74.6,301.7v-22.9h11.5v1H75.8v9.8h8.3v1h-8.3v10h11.6v1H74.6z"/>
	<path class="header-st0" d="M122.1,301.7l-2.7-7h-10.6l-2.7,7h-1.2l9-23.2h0.5l9,23.2H122.1z M115.6,284.9c-0.5-1.4-1-2.9-1.5-4.4H114
		c-0.5,1.5-1,3-1.5,4.3l-3.4,8.7h9.8L115.6,284.9z"/>
	<path class="header-st0" d="M146.3,279.8v21.9h-1.2v-21.9h-8.5v-1h18.1v1H146.3z"/>
	<path class="header-st0" d="M187.3,301.7l-8.1-11h-4.7v11h-1.1v-22.9h5.6c3.8,0,6.5,2.6,6.5,6c0,2.9-2,5.2-5,5.8l8.2,11.2H187.3z
		 M178.9,279.8h-4.4v9.8h4.5c3,0,5.3-2,5.3-4.9S182,279.8,178.9,279.8z"/>
	<path class="header-st0" d="M206.3,301.7v-22.9h11.5v1h-10.3v9.8h8.3v1h-8.3v10H219v1H206.3z"/>
</g>
<g>
	<path class="header-st0" d="M0.9,310.1v2.9h2.9v0.7H0.9v3.7H0v-8.1h4.3v0.7H0.9z"/>
	<path class="header-st0" d="M12.6,317.6c-2.2,0-4.2-1.7-4.2-4.2c0-2.5,2-4.2,4.2-4.2c2.2,0,4.2,1.7,4.2,4.2
		C16.8,315.9,14.8,317.6,12.6,317.6z M12.6,310c-1.8,0-3.4,1.4-3.4,3.4s1.6,3.4,3.4,3.4c1.8,0,3.4-1.4,3.4-3.4S14.3,310,12.6,310z"
		/>
	<path class="header-st0" d="M26.4,317.5l-2.7-3.7h-1.3v3.7h-0.9v-8.1h2.2c1.2,0,2.4,0.8,2.4,2.2c0,1.1-0.7,1.8-1.6,2.1l2.8,3.8H26.4z
		 M23.7,310.1h-1.2v2.9h1.3c0.9,0,1.6-0.5,1.6-1.5C25.3,310.6,24.6,310.1,23.7,310.1z"/>
	<path class="header-st0" d="M40.6,310.1v7.4h-0.9v-7.4H37v-0.7h6.4v0.7H40.6z"/>
	<path class="header-st0" d="M53.3,317.5v-3.7h-4.7v3.7h-0.9v-8.1h0.9v3.7h4.7v-3.7h0.9v8.1H53.3z"/>
	<path class="header-st0" d="M59.3,317.5v-8.1h4.2v0.7h-3.4v2.9h2.8v0.7h-2.8v3H64v0.7H59.3z"/>
	<path class="header-st0" d="M77.1,313.7h-1.5v3.7h-0.9v-8.1h2.4c1.2,0,2.4,0.8,2.4,2.2C79.4,312.9,78.3,313.7,77.1,313.7z M76.9,310.1
		h-1.4v2.9H77c0.9,0,1.6-0.5,1.6-1.5C78.6,310.6,77.8,310.1,76.9,310.1z"/>
	<path class="header-st0" d="M84.2,317.5v-8.1h4.2v0.7H85v2.9h2.8v0.7H85v3h3.8v0.7H84.2z"/>
	<path class="header-st0" d="M98,317.5l-2.7-3.7h-1.3v3.7h-0.9v-8.1h2.2c1.2,0,2.4,0.8,2.4,2.2c0,1.1-0.7,1.8-1.6,2.1l2.8,3.8H98z
		 M95.3,310.1h-1.2v2.9h1.3c0.9,0,1.6-0.5,1.6-1.5C97,310.6,96.2,310.1,95.3,310.1z"/>
	<path class="header-st0" d="M103.9,310.1v2.9h2.9v0.7h-2.9v3.7H103v-8.1h4.3v0.7H103.9z"/>
	<path class="header-st0" d="M115.6,317.6c-2.2,0-4.2-1.7-4.2-4.2c0-2.5,2-4.2,4.2-4.2c2.2,0,4.2,1.7,4.2,4.2
		C119.8,315.9,117.8,317.6,115.6,317.6z M115.6,310c-1.8,0-3.4,1.4-3.4,3.4s1.6,3.4,3.4,3.4c1.8,0,3.4-1.4,3.4-3.4
		S117.3,310,115.6,310z"/>
	<path class="header-st0" d="M129.4,317.5l-2.7-3.7h-1.3v3.7h-0.9v-8.1h2.2c1.2,0,2.4,0.8,2.4,2.2c0,1.1-0.7,1.8-1.6,2.1l2.8,3.8H129.4z
		 M126.7,310.1h-1.2v2.9h1.3c0.9,0,1.6-0.5,1.6-1.5C128.3,310.6,127.6,310.1,126.7,310.1z"/>
	<path class="header-st0" d="M142.3,317.5l-0.3-4.2c-0.1-0.7-0.1-1.4-0.1-2.1h0c-0.3,0.7-0.7,1.5-1,2.2l-2,4.2h-0.3l-2-4.2
		c-0.3-0.6-0.7-1.4-1-2.1h0c0,0.7-0.1,1.5-0.1,2.1l-0.3,4.2h-0.8l0.6-8.1h0.6l2.2,4.5c0.3,0.7,0.7,1.5,1.1,2.3h0
		c0.3-0.7,0.7-1.5,1-2.3l2.2-4.5h0.5l0.7,8.1H142.3z"/>
	<path class="header-st0" d="M148.1,317.5v-8.1h0.9v8.1H148.1z"/>
	<path class="header-st0" d="M161,317.6l-4-4.5c-0.7-0.8-1.4-1.7-2-2.3l0,0c0,0.8,0,1.5,0,2.2v4.5h-0.9v-8.1h0.6l3.8,4.3
		c0.5,0.6,1.3,1.5,1.8,2.2l0,0c0-0.7,0-1.4,0-2.1v-4.3h0.9v8.2H161z"/>
	<path class="header-st0" d="M170.4,317.6c-2.3,0-4.3-1.6-4.3-4.2c0-2.6,2.1-4.2,4.3-4.2c1.1,0,1.9,0.2,2.6,0.6l-0.2,0.8
		c-0.6-0.4-1.4-0.6-2.3-0.6c-1.8,0-3.5,1.3-3.5,3.5c0,2.1,1.7,3.4,3.5,3.4c0.9,0,1.6-0.2,2.1-0.5v-2.1h-2.1v-0.7h3v3.2
		C172.6,317.3,171.7,317.6,170.4,317.6z"/>
	<path class="header-st0" d="M190.4,317.5l-0.9-2.3H186l-0.9,2.3h-0.9l3.3-8.2h0.3l3.3,8.2H190.4z M188.2,312c-0.1-0.4-0.3-0.8-0.4-1.2h0
		c-0.1,0.4-0.3,0.9-0.4,1.2l-1,2.5h2.8L188.2,312z"/>
	<path class="header-st0" d="M200.6,317.5l-2.7-3.7h-1.3v3.7h-0.9v-8.1h2.2c1.2,0,2.4,0.8,2.4,2.2c0,1.1-0.7,1.8-1.6,2.1l2.8,3.8H200.6z
		 M197.9,310.1h-1.2v2.9h1.3c0.9,0,1.6-0.5,1.6-1.5C199.6,310.6,198.8,310.1,197.9,310.1z"/>
	<path class="header-st0" d="M208,310.1v7.4h-0.9v-7.4h-2.8v-0.7h6.4v0.7H208z"/>
	<path class="header-st0" d="M217,317.5c-0.9,0-1.7-0.3-2.1-0.6l-0.1-0.9c0.6,0.5,1.3,0.8,2.3,0.8c1,0,1.7-0.6,1.7-1.5
		c0-0.9-0.5-1.3-1.6-1.7c-1.4-0.5-2.1-1.2-2.1-2.3c0-1,0.8-2,2.4-2c0.7,0,1.4,0.2,1.7,0.5l-0.2,0.7c-0.3-0.2-0.9-0.5-1.5-0.5
		c-1,0-1.5,0.6-1.5,1.3c0,0.7,0.5,1.1,1.5,1.5c1.4,0.5,2.3,1.2,2.3,2.5C219.6,316.6,218.6,317.5,217,317.5z"/>
</g>
<linearGradient id="header_SVGID_1_" gradientUnits="userSpaceOnUse" x1="148.2186" y1="225.5147" x2="148.2186" y2="143.9247">
	<stop  offset="0" style="stop-color:#BE1E2D;stop-opacity:0.2"/>
	<stop  offset="1" style="stop-color:#BE1E2D"/>
</linearGradient>
<polygon class="header-st1" points="208.2,143.9 160.9,225.5 88.2,225.5 "/>
<linearGradient id="header-SVGID_2_" gradientUnits="userSpaceOnUse" x1="88.0406" y1="225.5147" x2="88.0406" y2="3.269633e-09">
	<stop  offset="0" style="stop-color:#CCA42E;stop-opacity:0.3"/>
	<stop  offset="1" style="stop-color:#CCA42E"/>
</linearGradient>
<polygon class="header-st2" points="15.2,0 53.2,225.5 160.9,225.5 "/>
</svg>
