<svg version="1.1" id="Layer_8_copy_2" xmlns="http://www.w3.org/2000/svg" xmlns:xlink="http://www.w3.org/1999/xlink" x="0px"
	 y="0px" width="220.6px" height="317.5px" viewBox="0 0 220.6 317.5" style="enable-background:new 0 0 220.6 317.5;"
	 xml:space="preserve">
<style type="text/css">
	.st0{fill:#403416;}
	.st1{fill:url(#SVGID_1_);}
	.st2{fill:url(#SVGID_2_);}
</style>
<g>
	<path class="st0" d="M0,271.9V249h2.4v20.8h10.7v2.1H0z"/>
	<path class="st0" d="M39.1,271.9l-2.6-6.4h-9.7l-2.6,6.4h-2.4l9.4-23.2h0.9l9.4,23.2H39.1z M33,256.4c-0.4-1-0.9-2.3-1.2-3.5h-0.1
		c-0.4,1.2-0.8,2.5-1.2,3.5l-2.8,7h8L33,256.4z"/>
	<path class="st0" d="M71.4,272.2l-11.2-12.8c-1.9-2.1-4-4.7-5.6-6.6l-0.1,0c0.1,2.1,0.1,4.2,0.1,6.3v12.6h-2.4V249h1.7l10.6,12.1
		c1.5,1.8,3.7,4.2,5.2,6.1l0.1,0c-0.1-2-0.1-4.1-0.1-6V249h2.4v23.3H71.4z"/>
	<path class="st0" d="M90.2,271.9h-6V249h6c6.9,0,12.7,4.2,12.7,11.5S97.2,271.9,90.2,271.9z M89.9,251h-3.2v18.8h3.2
		c6.1,0,10.6-3.3,10.6-9.4C100.5,254.3,96,251,89.9,251z"/>
	<path class="st0" d="M136.1,271.9l-0.9-11.9c-0.1-1.9-0.3-4-0.4-6h-0.1c-0.8,1.9-1.9,4.2-2.8,6.1l-5.8,11.9h-0.9l-5.8-11.9
		c-0.9-1.8-1.9-4.1-2.8-6.1h-0.1c-0.1,1.9-0.2,4.2-0.4,5.9l-0.9,11.9h-2.2l1.8-22.9h1.6l6.3,12.8c1,2,2.1,4.3,3,6.4h0.1
		c0.9-2.1,1.9-4.3,2.9-6.4L135,249h1.5l1.9,22.9H136.1z"/>
	<path class="st0" d="M165.6,271.9l-2.6-6.4h-9.7l-2.6,6.4h-2.4l9.4-23.2h0.9l9.4,23.2H165.6z M159.5,256.4c-0.4-1-0.9-2.3-1.2-3.5
		h-0.1c-0.4,1.2-0.8,2.5-1.2,3.5l-2.8,7h8L159.5,256.4z"/>
	<path class="st0" d="M192.3,271.9l-7.6-10.5h-3.6v10.5h-2.4V249h6.3c3.5,0,6.7,2.3,6.7,6.2c0,3-1.9,5.1-4.5,5.9l8,10.9H192.3z
		 M184.6,251.1h-3.5v8.3h3.6c2.5,0,4.6-1.5,4.6-4.1C189.3,252.6,187.1,251.1,184.6,251.1z"/>
	<path class="st0" d="M217.4,271.9l-10.1-11h0v11h-2.4V249h2.4v11h0l10-11h2.8l-10.2,11.2l10.7,11.7H217.4z"/>
	<path class="st0" d="M9.5,279.8v21.9H8.4v-21.9h-8.5v-1H18v1H9.5z"/>
	<path class="st0" d="M52.3,301.7v-11H37.6v11h-1.1v-22.9h1.1v10.9h14.7v-10.9h1.2v22.9H52.3z"/>
	<path class="st0" d="M74.3,301.7v-22.9h11.5v1H75.5v9.8h8.3v1h-8.3v10h11.6v1H74.3z"/>
	<path class="st0" d="M121.7,301.7l-2.7-7h-10.6l-2.7,7h-1.2l9-23.2h0.5l9,23.2H121.7z M115.3,284.9c-0.5-1.4-1-2.9-1.5-4.4h-0.1
		c-0.5,1.5-1,3-1.5,4.3l-3.4,8.7h9.8L115.3,284.9z"/>
	<path class="st0" d="M146,279.8v21.9h-1.2v-21.9h-8.5v-1h18.1v1H146z"/>
	<path class="st0" d="M187,301.7l-8.1-11h-4.7v11H173v-22.9h5.6c3.8,0,6.5,2.6,6.5,6c0,2.9-2,5.2-5,5.8l8.2,11.2H187z M178.5,279.8
		h-4.4v9.8h4.5c3,0,5.3-2,5.3-4.9S181.6,279.8,178.5,279.8z"/>
	<path class="st0" d="M205.9,301.7v-22.9h11.5v1h-10.3v9.8h8.3v1h-8.3v10h11.6v1H205.9z"/>
</g>
<g>
	<path class="st0" d="M0.5,310.1v2.9h2.9v0.7H0.5v3.7h-0.9v-8.1H4v0.7H0.5z"/>
	<path class="st0" d="M12.2,317.6c-2.2,0-4.2-1.7-4.2-4.2c0-2.5,2-4.2,4.2-4.2c2.2,0,4.2,1.7,4.2,4.2
		C16.5,315.9,14.4,317.6,12.2,317.6z M12.2,310c-1.8,0-3.4,1.4-3.4,3.4s1.6,3.4,3.4,3.4c1.8,0,3.4-1.4,3.4-3.4S14,310,12.2,310z"/>
	<path class="st0" d="M26.1,317.5l-2.7-3.7h-1.3v3.7h-0.9v-8.1h2.2c1.2,0,2.4,0.8,2.4,2.2c0,1.1-0.7,1.8-1.6,2.1l2.8,3.8H26.1z
		 M23.3,310.1h-1.2v2.9h1.3c0.9,0,1.6-0.5,1.6-1.5C25,310.6,24.2,310.1,23.3,310.1z"/>
	<path class="st0" d="M40.3,310.1v7.4h-0.9v-7.4h-2.8v-0.7h6.4v0.7H40.3z"/>
	<path class="st0" d="M52.9,317.5v-3.7h-4.7v3.7h-0.9v-8.1h0.9v3.7h4.7v-3.7h0.9v8.1H52.9z"/>
	<path class="st0" d="M58.9,317.5v-8.1h4.2v0.7h-3.4v2.9h2.8v0.7h-2.8v3h3.8v0.7H58.9z"/>
	<path class="st0" d="M76.8,313.7h-1.5v3.7h-0.9v-8.1h2.4c1.2,0,2.4,0.8,2.4,2.2C79.1,312.9,78,313.7,76.8,313.7z M76.6,310.1h-1.4
		v2.9h1.4c0.9,0,1.6-0.5,1.6-1.5C78.2,310.6,77.5,310.1,76.6,310.1z"/>
	<path class="st0" d="M83.8,317.5v-8.1h4.2v0.7h-3.4v2.9h2.8v0.7h-2.8v3h3.8v0.7H83.8z"/>
	<path class="st0" d="M97.7,317.5l-2.7-3.7h-1.3v3.7h-0.9v-8.1h2.2c1.2,0,2.4,0.8,2.4,2.2c0,1.1-0.7,1.8-1.6,2.1l2.8,3.8H97.7z
		 M95,310.1h-1.2v2.9H95c0.9,0,1.6-0.5,1.6-1.5C96.6,310.6,95.8,310.1,95,310.1z"/>
	<path class="st0" d="M103.5,310.1v2.9h2.9v0.7h-2.9v3.7h-0.9v-8.1h4.3v0.7H103.5z"/>
	<path class="st0" d="M115.2,317.6c-2.2,0-4.2-1.7-4.2-4.2c0-2.5,2-4.2,4.2-4.2c2.2,0,4.2,1.7,4.2,4.2
		C119.5,315.9,117.4,317.6,115.2,317.6z M115.2,310c-1.8,0-3.4,1.4-3.4,3.4s1.6,3.4,3.4,3.4c1.8,0,3.4-1.4,3.4-3.4
		S117,310,115.2,310z"/>
	<path class="st0" d="M129.1,317.5l-2.7-3.7h-1.3v3.7h-0.9v-8.1h2.2c1.2,0,2.4,0.8,2.4,2.2c0,1.1-0.7,1.8-1.6,2.1l2.8,3.8H129.1z
		 M126.3,310.1h-1.2v2.9h1.3c0.9,0,1.6-0.5,1.6-1.5C128,310.6,127.2,310.1,126.3,310.1z"/>
	<path class="st0" d="M142,317.5l-0.3-4.2c-0.1-0.7-0.1-1.4-0.1-2.1h0c-0.3,0.7-0.7,1.5-1,2.2l-2,4.2h-0.3l-2-4.2
		c-0.3-0.6-0.7-1.4-1-2.1h0c0,0.7-0.1,1.5-0.1,2.1l-0.3,4.2h-0.8l0.6-8.1h0.6l2.2,4.5c0.3,0.7,0.7,1.5,1.1,2.3h0
		c0.3-0.7,0.7-1.5,1-2.3l2.2-4.5h0.5l0.7,8.1H142z"/>
	<path class="st0" d="M147.8,317.5v-8.1h0.9v8.1H147.8z"/>
	<path class="st0" d="M160.7,317.6l-4-4.5c-0.7-0.8-1.4-1.7-2-2.3l0,0c0,0.8,0,1.5,0,2.2v4.5h-0.9v-8.1h0.6l3.8,4.3
		c0.5,0.6,1.3,1.5,1.8,2.2l0,0c0-0.7,0-1.4,0-2.1v-4.3h0.9v8.2H160.7z"/>
	<path class="st0" d="M170.1,317.6c-2.3,0-4.3-1.6-4.3-4.2c0-2.6,2.1-4.2,4.3-4.2c1.1,0,1.9,0.2,2.6,0.6l-0.2,0.8
		c-0.6-0.4-1.4-0.6-2.3-0.6c-1.8,0-3.5,1.3-3.5,3.5c0,2.1,1.7,3.4,3.5,3.4c0.9,0,1.6-0.2,2.1-0.5v-2.1h-2.1v-0.7h3v3.2
		C172.3,317.3,171.3,317.6,170.1,317.6z"/>
	<path class="st0" d="M190,317.5l-0.9-2.3h-3.4l-0.9,2.3h-0.9l3.3-8.2h0.3l3.3,8.2H190z M187.8,312c-0.1-0.4-0.3-0.8-0.4-1.2h0
		c-0.1,0.4-0.3,0.9-0.4,1.2l-1,2.5h2.8L187.8,312z"/>
	<path class="st0" d="M200.3,317.5l-2.7-3.7h-1.3v3.7h-0.9v-8.1h2.2c1.2,0,2.4,0.8,2.4,2.2c0,1.1-0.7,1.8-1.6,2.1l2.8,3.8H200.3z
		 M197.6,310.1h-1.2v2.9h1.3c0.9,0,1.6-0.5,1.6-1.5C199.2,310.6,198.5,310.1,197.6,310.1z"/>
	<path class="st0" d="M207.6,310.1v7.4h-0.9v-7.4H204v-0.7h6.4v0.7H207.6z"/>
	<path class="st0" d="M216.7,317.5c-0.9,0-1.7-0.3-2.1-0.6l-0.1-0.9c0.6,0.5,1.3,0.8,2.3,0.8c1,0,1.7-0.6,1.7-1.5
		c0-0.9-0.5-1.3-1.6-1.7c-1.4-0.5-2.1-1.2-2.1-2.3c0-1,0.8-2,2.4-2c0.7,0,1.4,0.2,1.7,0.5l-0.2,0.7c-0.3-0.2-0.9-0.5-1.5-0.5
		c-1,0-1.5,0.6-1.5,1.3c0,0.7,0.5,1.1,1.5,1.5c1.4,0.5,2.3,1.2,2.3,2.5C219.3,316.6,218.3,317.5,216.7,317.5z"/>
</g>
<linearGradient id="SVGID_1_" gradientUnits="userSpaceOnUse" x1="147.8719" y1="225.5147" x2="147.8719" y2="143.9247">
	<stop  offset="0" style="stop-color:#BE1E2D;stop-opacity:0.2"/>
	<stop  offset="1" style="stop-color:#BE1E2D"/>
</linearGradient>
<polygon class="st1" points="207.9,143.9 160.5,225.5 87.9,225.5 "/>
<linearGradient id="SVGID_2_" gradientUnits="userSpaceOnUse" x1="87.6939" y1="225.5147" x2="87.6939" y2="3.269633e-09">
	<stop  offset="0" style="stop-color:#CCA42E;stop-opacity:0.3"/>
	<stop  offset="1" style="stop-color:#CCA42E"/>
</linearGradient>
<polygon class="st2" points="14.9,0 52.9,225.5 160.5,225.5 "/>
</svg>
